<?xml version="1.0" encoding="UTF-8" standalone="no"?>
<!-- Created with Inkscape (http://www.inkscape.org/) -->

<svg
   xmlns:dc="http://purl.org/dc/elements/1.1/"
   xmlns:cc="http://creativecommons.org/ns#"
   xmlns:rdf="http://www.w3.org/1999/02/22-rdf-syntax-ns#"
   xmlns:svg="http://www.w3.org/2000/svg"
   xmlns="http://www.w3.org/2000/svg"
   xmlns:xlink="http://www.w3.org/1999/xlink"
   xmlns:sodipodi="http://sodipodi.sourceforge.net/DTD/sodipodi-0.dtd"
   xmlns:inkscape="http://www.inkscape.org/namespaces/inkscape"
   width="210mm"
   height="297mm"
   viewBox="0 0 210 297"
   version="1.1"
   id="svg8"
   inkscape:version="0.92.5 (2060ec1f9f, 2020-04-08)"
   sodipodi:docname="thyme.svg">
  <defs
     id="defs2">
    <linearGradient
       inkscape:collect="always"
       id="linearGradient1004">
      <stop
         style="stop-color:#76a228;stop-opacity:1"
         offset="0"
         id="stop1000" />
      <stop
         style="stop-color:#346c06;stop-opacity:1"
         offset="1"
         id="stop1002" />
    </linearGradient>
    <linearGradient
       inkscape:collect="always"
       id="linearGradient963">
      <stop
         style="stop-color:#b0d94b;stop-opacity:1"
         offset="0"
         id="stop959" />
      <stop
         style="stop-color:#3a7201;stop-opacity:1"
         offset="1"
         id="stop961" />
    </linearGradient>
    <linearGradient
       inkscape:collect="always"
       id="linearGradient842">
      <stop
         style="stop-color:#a5d03b;stop-opacity:1;"
         offset="0"
         id="stop838" />
      <stop
         style="stop-color:#143b01;stop-opacity:1"
         offset="1"
         id="stop840" />
    </linearGradient>
    <radialGradient
       inkscape:collect="always"
       xlink:href="#linearGradient842"
       id="radialGradient873"
       cx="-1334.6195"
       cy="669.68658"
       fx="-1334.6195"
       fy="669.68658"
       r="4.6647453"
       gradientTransform="matrix(0.09254226,0.387434,-1.0896691,0.26027781,497.90446,519.68658)"
       gradientUnits="userSpaceOnUse" />
    <radialGradient
       inkscape:collect="always"
       xlink:href="#linearGradient842"
       id="radialGradient875"
       cx="-1345.2286"
       cy="668.76398"
       fx="-1345.2286"
       fy="668.76398"
       r="4.8549514"
       gradientTransform="matrix(0.36787017,0.16246394,-0.40418978,0.91521454,408.65151,-215.71801)"
       gradientUnits="userSpaceOnUse" />
    <radialGradient
       inkscape:collect="always"
       xlink:href="#linearGradient842"
       id="radialGradient879"
       cx="-352.87354"
       cy="180.44098"
       fx="-352.87354"
       fy="180.44098"
       r="1.2100023"
       gradientTransform="matrix(3.1317061,-4.5235412,1.2655735,0.87617287,524.57543,-1574.244)"
       gradientUnits="userSpaceOnUse" />
    <radialGradient
       inkscape:collect="always"
       xlink:href="#linearGradient842"
       id="radialGradient883"
       cx="-1342.3829"
       cy="682.15234"
       fx="-1342.3829"
       fy="682.15234"
       r="5.7476707"
       gradientTransform="matrix(1.497914,-0.59741181,0.11425289,0.28647078,1579.8152,-816.66839)"
       gradientUnits="userSpaceOnUse" />
    <radialGradient
       inkscape:collect="always"
       xlink:href="#linearGradient963"
       id="radialGradient917"
       cx="-1327.9044"
       cy="658.69421"
       fx="-1327.9044"
       fy="658.69421"
       r="15.024045"
       gradientTransform="matrix(-3.1044899,-1.2059755,0.43764398,-1.1266078,-5735.0778,-195.91959)"
       gradientUnits="userSpaceOnUse" />
    <radialGradient
       inkscape:collect="always"
       xlink:href="#linearGradient963"
       id="radialGradient937"
       cx="-1322.3361"
       cy="680.52808"
       fx="-1322.3361"
       fy="680.52808"
       r="13.864618"
       gradientTransform="matrix(0.501902,-1.1128225,0.28580831,0.12890436,119.52411,-1380.4169)"
       gradientUnits="userSpaceOnUse" />
    <radialGradient
       inkscape:collect="always"
       xlink:href="#linearGradient963"
       id="radialGradient945"
       cx="-1355.8339"
       cy="694.10596"
       fx="-1355.8339"
       fy="694.10596"
       r="15.615161"
       gradientTransform="matrix(1.1992253,0.59917646,-0.14351172,0.28723237,1366.8164,796.06692)"
       gradientUnits="userSpaceOnUse" />
    <radialGradient
       inkscape:collect="always"
       xlink:href="#linearGradient963"
       id="radialGradient953"
       cx="-1362.1619"
       cy="682.38776"
       fx="-1362.1619"
       fy="682.38776"
       r="15.320612"
       gradientTransform="matrix(-1.2385186,3.2291543,-0.93310049,-0.35788393,-2412.9635,5320.086)"
       gradientUnits="userSpaceOnUse" />
    <radialGradient
       inkscape:collect="always"
       xlink:href="#linearGradient1004"
       id="radialGradient1006"
       cx="-1328.9834"
       cy="689.5741"
       fx="-1328.9834"
       fy="689.5741"
       r="23.282085"
       gradientTransform="matrix(-0.37682072,0.28910984,-0.79440026,-1.0354075,-1281.9741,1787.1342)"
       gradientUnits="userSpaceOnUse" />
    <radialGradient
       inkscape:collect="always"
       xlink:href="#linearGradient1004"
       id="radialGradient1018"
       cx="-1339.6893"
       cy="650.65997"
       fx="-1339.6893"
       fy="650.65997"
       r="22.309544"
       gradientTransform="matrix(0.1713904,0.00751661,-0.01539964,0.35113526,-114.6101,-45.174886)"
       gradientUnits="userSpaceOnUse" />
    <radialGradient
       inkscape:collect="always"
       xlink:href="#linearGradient1004"
       id="radialGradient1036"
       gradientUnits="userSpaceOnUse"
       gradientTransform="matrix(-0.01148964,-0.38208164,0.1734996,-0.00521734,-483.96046,-336.25396)"
       cx="-1344.6833"
       cy="650.86389"
       fx="-1344.6833"
       fy="650.86389"
       r="22.309544" />
    <radialGradient
       inkscape:collect="always"
       xlink:href="#linearGradient1004"
       id="radialGradient1042"
       gradientUnits="userSpaceOnUse"
       gradientTransform="matrix(0.9806797,0.81273118,-0.33142499,0.39991302,201.08282,1484.971)"
       cx="-1322.4174"
       cy="684.44061"
       fx="-1323.0409"
       fy="687.20776"
       r="23.282085" />
  </defs>
  <sodipodi:namedview
     id="base"
     pagecolor="#ffffff"
     bordercolor="#666666"
     borderopacity="1.0"
     inkscape:pageopacity="0.0"
     inkscape:pageshadow="2"
     inkscape:zoom="0.175"
     inkscape:cx="-410.30993"
     inkscape:cy="909.29237"
     inkscape:document-units="mm"
     inkscape:current-layer="layer1"
     showgrid="false"
     inkscape:window-width="1920"
     inkscape:window-height="1021"
     inkscape:window-x="0"
     inkscape:window-y="25"
     inkscape:window-maximized="1" />
  <metadata
     id="metadata5">
    <rdf:RDF>
      <cc:Work
         rdf:about="">
        <dc:format>image/svg+xml</dc:format>
        <dc:type
           rdf:resource="http://purl.org/dc/dcmitype/StillImage" />
        <dc:title></dc:title>
      </cc:Work>
    </rdf:RDF>
  </metadata>
  <g
     inkscape:label="Layer 1"
     inkscape:groupmode="layer"
     id="layer1">
    <g
       id="g1208"
       transform="matrix(1.7688124,0,0,1.7688124,690.89143,-258.70739)">
      <path
         inkscape:connector-curvature="0"
         id="path1075"
         d="m -354.26562,164.96094 c -7.67067,0 -13.90626,6.23558 -13.90626,13.90625 0,7.67066 6.23559,13.9082 13.90626,13.9082 7.67066,0 13.90625,-6.23754 13.90624,-13.9082 0,-7.67067 -6.23558,-13.90625 -13.90624,-13.90625 z m 0,1.65039 c 6.77856,0 12.25585,5.47729 12.25585,12.25586 0,6.77856 -5.47729,12.25781 -12.25585,12.25781 -6.77857,0 -12.25586,-5.47925 -12.25586,-12.25781 0,-6.77857 5.47729,-12.25586 12.25586,-12.25586 z"
         style="color:#000000;font-style:normal;font-variant:normal;font-weight:normal;font-stretch:normal;font-size:medium;line-height:normal;font-family:sans-serif;font-variant-ligatures:normal;font-variant-position:normal;font-variant-caps:normal;font-variant-numeric:normal;font-variant-alternates:normal;font-feature-settings:normal;text-indent:0;text-align:start;text-decoration:none;text-decoration-line:none;text-decoration-style:solid;text-decoration-color:#000000;letter-spacing:normal;word-spacing:normal;text-transform:none;writing-mode:lr-tb;direction:ltr;text-orientation:mixed;dominant-baseline:auto;baseline-shift:baseline;text-anchor:start;white-space:normal;shape-padding:0;clip-rule:nonzero;display:inline;overflow:visible;visibility:visible;opacity:1;isolation:auto;mix-blend-mode:normal;color-interpolation:sRGB;color-interpolation-filters:linearRGB;solid-color:#000000;solid-opacity:1;vector-effect:none;fill:#1d4405;fill-opacity:1;fill-rule:nonzero;stroke:none;stroke-width:1.65069032;stroke-linecap:round;stroke-linejoin:miter;stroke-miterlimit:4;stroke-dasharray:none;stroke-dashoffset:0;stroke-opacity:1;color-rendering:auto;image-rendering:auto;shape-rendering:auto;text-rendering:auto;enable-background:accumulate" />
      <path
         inkscape:connector-curvature="0"
         id="path1178"
         d="m -349.64843,176.26469 c -1.08024,-0.0183 -2.20208,0.16343 -3.25872,0.63614 l -0.24648,-0.25942 -1.23661,1.26349 c -4e-4,4e-4 -10e-4,6.3e-4 -0.002,0.001 l -1.19785,1.20717 0.14261,0.15037 c -0.079,0.12429 -0.17158,0.25188 -0.24133,0.37259 -0.15912,0.27546 -0.29165,0.53456 -0.40153,0.7984 -0.10985,0.26384 -0.29797,0.32976 -0.22995,1.17874 v 5.2e-4 c 7.7e-4,0.01 0.0407,0.83336 0.12248,1.68362 0.0818,0.85026 0.1924,1.8129 0.48109,2.71766 0.43508,1.36353 0.98478,3.07515 2.41226,4.40748 1.44462,1.34832 3.32518,2.15569 5.2555,2.34301 1.08273,0.10508 2.4054,0.15941 3.70829,-0.24804 l 0.17209,0.23047 1.3436,-0.94619 c 0.002,-0.002 0.005,-0.002 0.007,-0.004 l 1.49759,-1.03146 -0.22066,-0.29559 c 1.0623,-1.66185 0.77885,-3.57557 0.72554,-4.79299 -0.0809,-1.84662 -0.44638,-3.91928 -1.67121,-5.69474 h 5.2e-4 c -1.04679,-1.51754 -2.58908,-2.72434 -4.41523,-3.27991 h -5.3e-4 c -0.86061,-0.26174 -1.79012,-0.42253 -2.74661,-0.43873 z m -0.0589,3.49953 c 0.59524,0.0101 1.22288,0.11625 1.78697,0.28784 h 5e-4 c 0.94621,0.28779 1.95369,1.05093 2.55231,1.91874 0.65608,0.95102 0.99168,2.39776 1.05576,3.86023 0.0164,0.37493 -0.0133,0.65104 -0.0212,0.9803 -1.69645,-2.16999 -3.62019,-4.539 -5.84253,-7.00525 0.15801,-0.0119 0.30253,-0.0447 0.46818,-0.0419 z m -3.0608,2.44016 c 2.23184,2.48092 4.19364,4.90425 5.87666,7.06675 -0.27824,0.003 -0.53967,0.0375 -0.81907,0.0103 -1.14176,-0.1108 -2.39319,-0.66032 -3.20498,-1.418 -0.59097,-0.55159 -1.06236,-1.6451 -1.46659,-2.91197 -0.12104,-0.37936 -0.25955,-1.24454 -0.33123,-1.98954 -0.0334,-0.34662 -0.0382,-0.49898 -0.0548,-0.75758 z"
         style="color:#000000;font-style:normal;font-variant:normal;font-weight:normal;font-stretch:normal;font-size:medium;line-height:normal;font-family:sans-serif;font-variant-ligatures:normal;font-variant-position:normal;font-variant-caps:normal;font-variant-numeric:normal;font-variant-alternates:normal;font-feature-settings:normal;text-indent:0;text-align:start;text-decoration:none;text-decoration-line:none;text-decoration-style:solid;text-decoration-color:#000000;letter-spacing:normal;word-spacing:normal;text-transform:none;writing-mode:lr-tb;direction:ltr;text-orientation:mixed;dominant-baseline:auto;baseline-shift:baseline;text-anchor:start;white-space:normal;shape-padding:0;clip-rule:nonzero;display:inline;overflow:visible;visibility:visible;opacity:1;isolation:auto;mix-blend-mode:normal;color-interpolation:sRGB;color-interpolation-filters:linearRGB;solid-color:#000000;solid-opacity:1;vector-effect:none;fill:#ffffff;fill-opacity:1;fill-rule:nonzero;stroke:none;stroke-width:3.5;stroke-linecap:butt;stroke-linejoin:miter;stroke-miterlimit:4;stroke-dasharray:none;stroke-dashoffset:0;stroke-opacity:1;color-rendering:auto;image-rendering:auto;shape-rendering:auto;text-rendering:auto;enable-background:accumulate" />
      <path
         sodipodi:nodetypes="ccccccccccccc"
         inkscape:connector-curvature="0"
         id="path1167"
         d="m -356.28005,157.65084 -0.0227,0.44493 c -0.69964,0.29867 -1.33228,0.80737 -1.92238,1.46193 -1.41132,1.56555 -2.93564,4.26286 -3.50367,6.89002 -0.45506,2.1046 -0.28874,4.30155 0.29559,6.29832 3.43075,10.60101 10.87409,9.40191 13.56716,-0.92085 0.51125,-2.05807 0.63672,-4.36968 -0.0625,-6.54172 -0.72385,-2.24812 -2.16651,-4.25611 -3.75894,-5.73247 -0.52122,-0.48322 -1.04552,-0.93594 -1.65208,-1.26659 l 0.0165,-0.32918 -1.37047,-0.12505 h -0.001 z"
         style="color:#000000;font-style:normal;font-variant:normal;font-weight:normal;font-stretch:normal;font-size:medium;line-height:normal;font-family:sans-serif;font-variant-ligatures:normal;font-variant-position:normal;font-variant-caps:normal;font-variant-numeric:normal;font-variant-alternates:normal;font-feature-settings:normal;text-indent:0;text-align:start;text-decoration:none;text-decoration-line:none;text-decoration-style:solid;text-decoration-color:#000000;letter-spacing:normal;word-spacing:normal;text-transform:none;writing-mode:lr-tb;direction:ltr;text-orientation:mixed;dominant-baseline:auto;baseline-shift:baseline;text-anchor:start;white-space:normal;shape-padding:0;clip-rule:nonzero;display:inline;overflow:visible;visibility:visible;opacity:1;isolation:auto;mix-blend-mode:normal;color-interpolation:sRGB;color-interpolation-filters:linearRGB;solid-color:#000000;solid-opacity:1;vector-effect:none;fill:#fefffe;fill-opacity:1;fill-rule:nonzero;stroke:none;stroke-width:3;stroke-linecap:butt;stroke-linejoin:miter;stroke-miterlimit:4;stroke-dasharray:none;stroke-dashoffset:0;stroke-opacity:1;color-rendering:auto;image-rendering:auto;shape-rendering:auto;text-rendering:auto;enable-background:accumulate" />
      <path
         id="path1030"
         d="m -354.81641,178.47771 c -0.48302,-5.99497 -0.41958,-12.45798 -0.078,-19.15904 -0.077,-0.007 -0.15388,-0.0108 -0.23151,-0.007 l -5e-5,-1.7e-4 c -0.60055,0.0318 -1.22655,0.40936 -1.9849,1.25057 -1.14805,1.27351 -2.66843,3.96692 -3.15174,6.20221 -0.39222,1.81369 -0.25197,3.77936 0.26924,5.56038 0.6052,2.06939 1.51384,4.28952 3.21789,5.61051 0.65344,0.50654 1.16401,0.94916 1.95884,0.72152 z"
         style="fill:url(#radialGradient1036);fill-opacity:1;stroke:#66942e;stroke-width:0.05;stroke-linecap:butt;stroke-linejoin:miter;stroke-miterlimit:4;stroke-dasharray:none;stroke-opacity:1"
         inkscape:connector-curvature="0" />
      <path
         id="path834"
         d="m -354.71851,178.63372 c 1.3992,-0.40077 2.43671,-1.83041 3.28068,-3.01623 0.85981,-1.20805 1.75866,-2.71522 2.11616,-4.15427 0.45966,-1.85038 0.5497,-3.90518 -0.0346,-5.72007 -0.62037,-1.92673 -1.93493,-3.77958 -3.35071,-5.09219 -0.81198,-0.75279 -1.47783,-1.25412 -2.15593,-1.33067 -0.34145,6.70006 -0.40529,13.16265 0.0775,19.15542 z"
         style="fill:url(#radialGradient1018);fill-opacity:1;stroke:#66942e;stroke-width:0.05;stroke-linecap:butt;stroke-linejoin:miter;stroke-miterlimit:4;stroke-dasharray:none;stroke-opacity:1"
         inkscape:connector-curvature="0" />
      <path
         id="path1010"
         transform="scale(0.26458333)"
         d="m -1321.6172,672.81055 c -3.7706,-0.0639 -7.5249,0.62096 -10.707,2.34375 -0.8134,0.44035 -1.6301,1.11447 -2.416,1.90625 13.6304,14.33157 27.3608,31.56847 35.3964,42.32422 0.545,-0.38406 1.0596,-0.81073 1.5274,-1.29493 3.7813,-3.9109 3.3259,-10.59054 3.0879,-16.02539 -0.274,-6.25341 -1.5979,-12.90423 -5.1524,-18.05664 -3.1096,-4.50799 -7.9284,-8.23058 -13.1679,-9.82422 -2.6926,-0.81905 -5.6357,-1.32337 -8.5684,-1.37304 z"
         style="fill:url(#radialGradient1042);fill-opacity:1;stroke:#66942e;stroke-width:0.18897638;stroke-linecap:butt;stroke-linejoin:miter;stroke-miterlimit:4;stroke-dasharray:none;stroke-opacity:1"
         inkscape:connector-curvature="0" />
      <path
         id="path836"
         transform="scale(0.26458333)"
         d="m -1334.8223,677.14648 c -2.9355,2.99878 -5.3887,7.69002 -5.3047,8.73829 0.1074,1.33787 0.4396,10.30093 1.9883,15.15429 1.5861,4.97084 3.5157,10.27187 7.3301,13.83203 4.2641,3.97985 10.1828,6.54405 15.9883,7.10743 5.0756,0.49261 11.2193,0.3452 15.3789,-2.51954 -8.0327,-10.75153 -21.7588,-27.98805 -35.3809,-42.3125 z"
         style="fill:url(#radialGradient1006);fill-opacity:1;stroke:#66942e;stroke-width:0.18897638;stroke-linecap:butt;stroke-linejoin:miter;stroke-miterlimit:4;stroke-dasharray:none;stroke-opacity:1"
         inkscape:connector-curvature="0" />
      <g
         id="g986">
        <path
           style="fill:url(#radialGradient917);fill-opacity:1;stroke:#beeb79;stroke-width:0.18897638;stroke-linecap:butt;stroke-linejoin:miter;stroke-miterlimit:4;stroke-dasharray:none;stroke-opacity:1"
           d="m -1330.3633,658.33398 c -3.4915,-0.0915 -7.098,0.71523 -9.9687,2.51758 -1.7478,1.09735 -3.0882,3.06882 -3.5332,5.08399 -0.4596,2.08044 0.2933,4.32392 1.0976,6.29687 0.5652,1.38529 1.4854,2.59575 2.4453,3.76172 0.3862,-0.17508 0.7484,-0.34792 1.1953,-0.5293 2.8448,-1.15457 6.8401,-2.41525 10.9473,-3.52148 4.1072,-1.10623 8.3226,-2.0554 11.6113,-2.60547 0.9732,-0.16274 1.8286,-0.27851 2.6114,-0.36523 -0.1546,-0.92917 -0.4249,-1.82361 -0.8575,-2.62891 -2.2594,-4.20609 -7.4492,-6.66645 -12.1269,-7.62305 -1.107,-0.22638 -2.258,-0.3562 -3.4219,-0.38672 z"
           transform="scale(0.26458333)"
           id="path905"
           inkscape:connector-curvature="0" />
        <path
           style="fill:url(#radialGradient937);fill-opacity:1;stroke:#beeb79;stroke-width:0.05;stroke-linecap:butt;stroke-linejoin:miter;stroke-miterlimit:4;stroke-dasharray:none;stroke-opacity:1"
           d="m -347.66782,176.98231 c -0.20632,0.0224 -0.43185,0.0526 -0.68884,0.0956 -0.8686,0.14528 -1.98477,0.3969 -3.07062,0.68936 -1.08585,0.29246 -2.14183,0.62507 -2.89232,0.92966 -0.11491,0.0466 -0.20736,0.0912 -0.30697,0.13643 0.0651,0.0788 0.13052,0.15732 0.19534,0.23512 0.52623,0.63151 0.97689,1.4534 1.74718,1.74046 0.83772,0.31223 1.84774,0.15069 2.67528,-0.18758 0.82989,-0.33894 1.66187,-0.93427 2.04742,-1.74356 0.26766,-0.56181 0.39108,-1.26068 0.29353,-1.8955 z"
           id="path830"
           inkscape:connector-curvature="0" />
      </g>
      <g
         id="g990">
        <path
           style="fill:url(#radialGradient953);fill-opacity:1;stroke:#beeb79;stroke-width:0.18897638;stroke-linecap:butt;stroke-linejoin:miter;stroke-miterlimit:4;stroke-dasharray:none;stroke-opacity:1"
           d="m -1355.4004,666.46094 c -1.1197,-0.004 -2.2195,0.15118 -3.25,0.53125 -1.8045,0.66546 -3.0822,2.40335 -4.166,3.99219 -2.1111,3.09467 -3.3907,6.75135 -4.2793,10.39062 -0.6408,2.62435 -1.8041,5.58547 -1.3105,8.17383 10.3631,-5.42943 20.077,-9.34257 29.3281,-12.17578 -0.8633,-1.90298 -2.2721,-3.63012 -3.6895,-5.14063 -1.9487,-2.07685 -4.4102,-3.8337 -7.1113,-4.73633 -1.7362,-0.5802 -3.6553,-1.02843 -5.5215,-1.03515 z"
           transform="scale(0.26458333)"
           id="path909"
           inkscape:connector-curvature="0" />
        <path
           style="fill:url(#radialGradient945);fill-opacity:1;stroke:#beeb79;stroke-width:0.05;stroke-linecap:butt;stroke-linejoin:miter;stroke-miterlimit:4;stroke-dasharray:none;stroke-opacity:1"
           d="m -354.29884,179.19295 c -2.44944,0.74996 -5.02217,1.7864 -7.76698,3.22513 0.0249,0.11658 0.0612,0.23035 0.11525,0.34003 0.4191,0.85071 1.49937,1.23058 2.39985,1.52807 0.74907,0.24746 1.61306,0.42053 2.36059,0.16846 1.0124,-0.34136 1.84147,-1.21095 2.40657,-2.1177 0.45479,-0.72978 0.78732,-1.63652 0.67643,-2.48925 -0.0294,-0.22646 -0.099,-0.44415 -0.19171,-0.65474 z"
           id="path832"
           inkscape:connector-curvature="0" />
      </g>
      <g
         id="g998">
        <path
           style="fill:url(#radialGradient873);fill-opacity:1;stroke:#366a00;stroke-width:0.05;stroke-linecap:butt;stroke-linejoin:miter;stroke-miterlimit:4;stroke-dasharray:none;stroke-opacity:1"
           d="m -356.07526,176.81509 c -0.0649,0.0494 -0.12612,0.10294 -0.18705,0.15693 l 1.78437,2.00506 c 0.0611,-0.043 0.12295,-0.0812 0.18634,-0.11027 v 0 l 0.01,-0.0127 c 0,0 0.007,0.004 0.007,0.004 0.60307,-0.28183 1.15515,-0.84971 1.10877,-1.35931 -0.0334,-0.3675 -0.15,-0.75959 -0.384,-1.04492 -0.28961,-0.35315 -0.91062,-0.32557 -1.35328,-0.21304 -0.41212,0.10476 -0.818,0.30566 -1.17103,0.5737 z"
           id="path867"
           inkscape:connector-curvature="0" />
        <path
           style="fill:url(#radialGradient875);fill-opacity:1;stroke:#366a00;stroke-width:0.05;stroke-linecap:butt;stroke-linejoin:miter;stroke-miterlimit:4;stroke-dasharray:none;stroke-opacity:1"
           d="m -356.2529,176.96488 c -0.26066,0.23361 -0.48357,0.50416 -0.64272,0.80103 -0.32688,0.60979 -0.61474,1.56817 -0.13958,2.07108 0.37856,0.40067 0.97766,0.25595 1.47924,0.0274 0.3804,-0.17331 0.71962,-0.63051 1.08648,-0.89561 z"
           id="path826"
           inkscape:connector-curvature="0" />
      </g>
      <g
         id="g994">
        <path
           style="fill:url(#radialGradient879);fill-opacity:1;stroke:#366a00;stroke-width:0.05;stroke-linecap:butt;stroke-linejoin:miter;stroke-miterlimit:4;stroke-dasharray:none;stroke-opacity:1"
           d="m -353.15282,177.9459 c -0.33416,0.24848 -0.66859,0.56041 -0.82697,0.7033 -0.0688,0.0616 -0.17889,0.14086 -0.30452,0.22704 0.0185,0.0142 0.56368,0.45398 1.13469,0.91502 0.29016,0.23433 0.5816,0.47158 0.80484,0.6528 0.0753,0.0612 0.12813,0.10425 0.18502,0.15054 0.13014,-0.11105 0.24483,-0.23647 0.3316,-0.38037 0.3019,-0.50069 0.37937,-1.17983 0.21377,-1.74057 -0.10489,-0.3553 -0.60811,-0.7805 -0.71273,-0.85292 -0.15805,-0.10911 -0.49184,0.0763 -0.82591,0.32488 z"
           id="path871"
           inkscape:connector-curvature="0" />
        <path
           inkscape:connector-curvature="0"
           style="fill:url(#radialGradient883);fill-opacity:1;stroke:#366a00;stroke-width:0.05;stroke-linecap:butt;stroke-linejoin:miter;stroke-miterlimit:4;stroke-dasharray:none;stroke-opacity:1"
           d="m -354.9172,179.33845 c -0.39317,0.31176 -0.76601,0.68937 -0.85966,1.1118 -0.0518,0.23344 0.0504,0.53865 0.24818,0.67309 0.68509,0.46584 1.6972,0.19831 2.48474,-0.0589 0.31735,-0.10363 0.64332,-0.25939 0.90599,-0.4761 -0.0555,-0.0459 -0.10608,-0.088 -0.1795,-0.14761 -0.22322,-0.18118 -0.51634,-0.41721 -0.8065,-0.65153 -0.57495,-0.46422 -1.13147,-0.91268 -1.14199,-0.92114 -0.19204,0.13278 -0.42226,0.28879 -0.65125,0.47037 z"
           id="path828" />
      </g>
      <text
         id="text957"
         y="182.71065"
         x="-334.48111"
         style="font-style:normal;font-variant:normal;font-weight:normal;font-stretch:normal;font-size:12.49746513px;line-height:1.25;font-family:Garbata;-inkscape-font-specification:'Garbata, Normal';font-variant-ligatures:normal;font-variant-caps:normal;font-variant-numeric:normal;font-feature-settings:normal;text-align:start;letter-spacing:0px;word-spacing:0px;writing-mode:lr-tb;text-anchor:start;fill:#1d4405;fill-opacity:1;stroke:none;stroke-width:0.31243661"
         xml:space="preserve"><tspan
           style="font-style:normal;font-variant:normal;font-weight:normal;font-stretch:normal;font-size:12.49746513px;font-family:Garbata;-inkscape-font-specification:'Garbata, Normal';font-variant-ligatures:normal;font-variant-caps:normal;font-variant-numeric:normal;font-feature-settings:normal;text-align:start;writing-mode:lr-tb;text-anchor:start;fill:#1d4405;fill-opacity:1;stroke-width:0.31243661"
           y="182.71065"
           x="-334.48111"
           id="tspan955"
           sodipodi:role="line">Thyme</tspan></text>
    </g>
  </g>
</svg>
